

<svg
   version="1.2"
   id="Layer_1"
   x="0px"
   y="0px"
   viewBox="0 0 2516.7173 720.00002"
   overflow="visible"
   xml:space="preserve"  
   width="2516.7173"
   height="720"
   xmlns="http://www.w3.org/2000/svg"
   >
<g
   id="g56"
   transform="matrix(5.8622375,0,0,5.8622375,-1870.2296,-882.09088)">
	
	
	
	<path
   fill="#ff6c0e"
   d="m 352.96,184.49 h -33.92 l 6.86,21.13 h 16.91 v -0.05 c 17.12,0 31,-13.96 31.05,-31.24 v -16.96 l -20.9,-6.9 z"
   id="path8" />
	<path
   fill="#ff6c0e"
   d="m 352.85,237.18 v 34.08 l 21,-6.85 V 247.4 h -0.05 c 0,-17.23 -13.88,-31.19 -31.05,-31.24 h -16.86 l -6.86,21.02 z"
   id="path10" />
	<path
   fill="#ff6c0e"
   d="m 405.23,237.23 h 33.92 l -6.91,-21.08 h -16.85 -0.05 c -17.12,0.05 -31,14.02 -31,31.24 v 0.05 16.9 l 20.9,6.9 v -34.01 z"
   id="path12" />
	<path
   fill="#ff6c0e"
   d="m 405.28,184.59 v -34.08 l -20.95,6.85 v 17.01 c 0.05,17.23 13.93,31.19 31.05,31.24 h 0.05 16.8 l 6.91,-21.02 z"
   id="path14" />
	<path
   fill="#002d74"
   d="m 547.03,255.53 6.17,-2.51 c 5.05,-1.98 5.05,-5.67 5.05,-13.85 v -59.01 c 0,-4.55 -1.28,-6.79 -4.78,-9.2 l -5.64,-3.8 v -3.1 h 25.58 l 1.54,0.96 c 2.82,3.8 8.67,14.02 16.54,24.71 l 27.12,37.13 c 1.12,1.55 1.7,2.25 2.23,2.25 1.12,0 1.12,-1.39 1.12,-3.96 v -44.88 c 0,-6.47 -0.11,-7.76 -5.58,-10 l -8.03,-3.1 v -3.1 h 32.17 v 3.1 l -4.09,1.55 c -6.01,2.41 -7.18,3.8 -7.18,13.11 v 55.64 c 0,8.51 0.16,17.12 0.16,20.06 l -0.96,1.12 h -7.87 l -1.54,-1.12 c -1.28,-1.55 -8.56,-11.88 -16,-21.88 l -32.86,-44.19 c -1.81,-2.41 -2.66,-3.69 -3.35,-3.69 -1.28,0 -1.28,1.44 -1.28,3.42 v 50.5 c 0,6.79 0,8.93 5.9,10.91 l 8.29,2.94 v 3.1 h -32.7 v -3.11 z"
   id="path16" />
	<path
   fill="#002d74"
   d="m 511.62,228.25 c 0,-4.49 0.8,-6.1 -4.2,-8.77 l -3.46,-1.71 v -3.1 h 34.45 v 3.1 l -3.51,1.39 c -5.21,2.14 -5.21,2.73 -5.1,9.09 l 0.05,25.62 -1.28,1.23 c -6.01,1.55 -20.05,5.4 -32.7,5.4 -29.03,0 -43.33,-15.14 -43.33,-47.88 0,-35.2 20.21,-50.45 46.74,-50.45 7.12,0 20.05,0 29.03,7.65 2.98,2.51 3.24,5.35 3.24,6.47 0,2.14 -0.42,2.57 -0.85,3.42 l -6.43,12.57 h -2.39 c 0,-6.21 -7.18,-22.74 -25.84,-22.74 -21.64,0 -22.7,15.19 -22.7,40.87 0,22.47 2.34,42.69 28.18,42.69 8.35,0 9.89,-4.44 10.1,-9.41 z"
   id="path18" />
	<path
   fill="#002d74"
   d="m 648.75,255.53 6.17,-2.09 c 4.63,-1.55 4.78,-4.12 4.78,-13 V 179.4 c 0,-6.74 0,-8.45 -4.78,-10 l -6.17,-2.25 v -3.1 h 46.52 c 16.27,0 32.22,3.53 32.22,24.98 0,19.63 -14.57,31.78 -37.32,31.78 -0.96,0 -2.23,-0.16 -3.08,-0.16 l -2.07,-5.08 1.12,-1.12 c 10.21,-0.27 22.6,-4.49 20.84,-24.34 -1.38,-15.46 -5.85,-18.35 -18.45,-18.35 -8.56,0 -9.15,1.28 -9.15,4.81 v 63.87 c 0,9.47 -0.16,11.45 5.48,13 l 7.29,2.09 v 3.1 h -43.39 v -3.1 z"
   id="path20" />
	<rect
   x="452.54999"
   y="271.31"
   fill="#002d74"
   width="295.70999"
   height="1.98"
   id="rect22" />
	<path
   fill="#002d74"
   d="m 740.52,165.6 c 3.24,0 5.9,2.62 5.9,6.37 0,3.69 -2.66,6.37 -5.9,6.37 v 1.5 c 4.31,0 7.82,-3.53 7.82,-7.86 0,-4.39 -3.51,-7.92 -7.82,-7.92 z m 0,7.55 v -1.87 h 0.05 c 1.01,0 1.81,-0.16 1.81,-1.34 0,-1.07 -0.96,-1.23 -1.75,-1.23 h -0.1 v -1.28 h 0.27 c 2.13,0 3.3,0.75 3.3,2.62 0,1.55 -0.9,2.3 -2.34,2.41 l 2.39,3.96 h -1.7 z m 0,5.19 c -3.3,0 -5.96,-2.68 -5.96,-6.37 0,-3.74 2.66,-6.37 5.96,-6.37 v -1.55 c -4.36,0 -7.87,3.53 -7.87,7.92 0,4.33 3.51,7.86 7.87,7.86 z m 0,-10.92 v 1.28 h -1.38 v 2.57 h 1.38 v 1.87 l -0.37,-0.59 h -1.01 v 3.85 h -1.65 v -8.99 h 3.03 z"
   id="path24" />
	
	
	
	
	
	
	
	<path
   fill="#ff6c0e"
   d="m 394.8,210.86 c 0,8.72 -7.02,15.78 -15.74,15.78 -8.67,0 -15.69,-7.06 -15.69,-15.78 0,-8.72 7.02,-15.78 15.69,-15.78 8.73,0 15.74,7.06 15.74,15.78"
   id="path40" />
	
	
	
	
	
	
	
</g>
</svg>
