<?xml version="1.0" encoding="utf-8"?>
<!-- Generator: Adobe Illustrator 24.0.0, SVG Export Plug-In . SVG Version: 6.00 Build 0)  -->
<svg version="1.1" id="Capa_1" xmlns="http://www.w3.org/2000/svg" xmlns:xlink="http://www.w3.org/1999/xlink" x="0px" y="0px"
	 viewBox="0 0 600 170" style="enable-background:new 0 0 600 170;" xml:space="preserve">
<style type="text/css">
	.st0{fill:#132339;}
	.st1{fill:#E10F1A;}
	.st2{opacity:0.8;}
	.st3{opacity:0.8;fill:url(#SVGID_1_);}
	.st4{opacity:0.8;fill:url(#SVGID_2_);}
	.st5{opacity:0.8;fill:url(#SVGID_3_);}
	.st6{opacity:0.8;fill:url(#SVGID_4_);}
	.st7{opacity:0.8;fill:url(#SVGID_5_);}
	.st8{opacity:0.8;fill:url(#SVGID_6_);}
	.st9{opacity:0.8;fill:url(#SVGID_7_);}
	.st10{opacity:0.8;fill:url(#SVGID_8_);}
	.st11{fill:url(#SVGID_9_);}
</style>
<g>
	<g>
		<g>
			<polygon class="st0" points="79.89,102.51 107.22,102.51 110.32,71.09 82.96,71.09 			"/>
			<polygon class="st0" points="114.78,26.23 87.41,26.23 84.31,57.67 111.66,57.67 			"/>
			<polygon class="st0" points="117.35,0.18 89.99,0.18 88.55,14.92 115.88,14.92 			"/>
			<path class="st0" d="M155.54,46.53c0.96-11.86,5.86-14.49,9.79-14.61l0.41-0.01c3.3,0,5.28,1.28,6.33,2.33
				c3.41,3.42,2.61,9.37,2.22,12.22c-0.03,0.31-0.09,0.58-0.13,0.8l-0.54,5.66h25.84l0.61-6.5c0.56-5.64,0.05-7.85-1.24-10.44
				c-1.4-2.59-3.99-4.61-4.88-5.15c-5.12-3.75-12.34-5.82-21.61-6.27c-2.33-0.14-4.28-0.14-6.33-0.14
				c-10.82,0-19.12,0.94-27.06,5.69c-8.05,4.66-9.99,10.24-10.89,19.57l-0.8,7.99h27.16L155.54,46.53z"/>
			<path class="st0" d="M124.96,80.98c-0.4,4.07-0.58,7.45,1.05,10.93c4.43,9.56,18.45,11.67,26.38,12.1l0.39,0.02
				c3,0.16,5.91,0.29,8.85,0.29c1.47,0,5.9,0,10.58-0.71c4.02-0.57,13.97-2.56,19.96-8.51c4.07-4.16,5.07-7.78,5.68-13.88l0.33-3.41
				h-27.01l-0.32,3.32c-0.18,2.24-0.71,9.07-10.12,9.07c-2.95,0-5.22-0.73-6.74-2.22c-2.34-2.29-2.02-5.43-1.84-7.12l0.05-0.27
				l0.94-9.51h-27.19L124.96,80.98z"/>
			<path class="st0" d="M211.13,84c-0.61,6.06-0.9,9.13,0.03,11.71c0.67,2.09,3.83,8.75,17.3,8.75c8.05,0,16.77-1.74,20.51-5.2
				c2.26-2.05,5.26-4.92,5.78-6.71c-0.77,0.1-3.57,0.68-4.42,0.68c-3.11,0-8.25-0.78-9.84-2.34c-2.48-2.4-2.12-5.74-1.95-7.33
				l0.61-6.13c0.25-2.53,0.55-4.25,2.39-6.34h-26.55C212.62,74.43,211.67,78.61,211.13,84z"/>
			<path class="st0" d="M289.71,47.04c0.69-6.79-0.05-9.58-1.79-12.61c-3.85-6.5-13.96-9.88-29.99-10
				c-19.68,0-31.62,4.02-36.52,12.31c-1.44,2.48-2.26,4.16-2.81,9.62l-0.34,3.55h24.98l0.24-2.81c0.72-9.88,4.03-14.94,9.87-15.02
				l0,0c2.88,0,5.1,0.83,6.67,2.4c3.56,3.58,2.75,9.9,2.36,12.6l-0.07,0.64l-0.63,6.52l-1.26,0.53c-2.05,0.87-4.16,1.46-6.07,2
				l-0.76,0.22c-0.95,0.26-1.9,0.45-2.85,0.68h37.95L289.71,47.04z"/>
			<path class="st0" d="M256.9,102.51h28.95c-0.94-1.87-1.18-4.22-0.79-8.31l2.28-23.11H260L256.9,102.51z"/>
			<polygon class="st0" points="347.48,102.51 374.8,102.51 377.91,71.09 350.57,71.09 			"/>
			<path class="st0" d="M333.92,46.88c0.1-1.13,0.21-2.26,0.78-3.59c1.39-3.4,4.78-5.34,9.31-5.34c2.98,0,5.26,0.77,6.84,2.31
				c2.51,2.41,2.18,5.86,2.06,6.98l-1.01,10.43h27.32l1.03-10.32c0.74-7.4,6.01-8.95,10.3-8.95c2.71,0,4.81,0.71,6.29,2.13
				c1.59,1.55,2.26,3.87,1.96,6.89l-1.03,10.25h27.17L426.3,44c0.27-2.9,0.56-5.65-0.24-8.15c-0.93-3.35-4.7-10.98-19.94-10.98
				c-12.44,0-18.29,7.02-21.44,10.79l-2.57,3.08l-1.96-3.8c-0.63-1.42-1.54-3.37-3.93-5.57c-5.06-4.64-12.64-4.64-15.13-4.64
				c-3.12,0-5.15,0.28-6.33,0.55c-2.75,0.58-9.68,2.64-15.1,9.55l-5.22,6.73l1.5-15.31h-27.18l-3.11,31.44h27.19L333.92,46.88z"/>
			<polygon class="st0" points="301.24,102.51 328.42,102.51 331.52,71.09 304.34,71.09 			"/>
			<polygon class="st0" points="393.35,102.51 420.52,102.51 423.63,71.09 396.46,71.09 			"/>
			<path class="st0" d="M512.08,78.1h-25.99l-0.25,2.58c-0.59,6.14-4.07,9.21-10.34,9.21c-2.82,0-5.09-0.8-6.73-2.37
				c-3.13-3.04-2.66-7.76-2.44-9.77l0.72-6.67h-27.38l-0.7,7.16c-0.53,5.45-1.04,10.58,1.55,15.18c1.92,3.56,6.95,8.08,20.06,9.65
				l0.62,0.06c3.45,0.39,7.36,0.57,11.85,0.57c15.74,0,24.74-2,31-6.98c6.2-4.77,7.2-10.34,7.81-16.58L512.08,78.1z"/>
			<path class="st0" d="M469.78,44.9c0.98-10.13,4.59-15.26,10.79-15.26c2.21,0,4,0.97,5.65,2.22c5.78,4.36,3.69,12.33,3.6,13.47
				c-1.76,3.86-4.92,8.51-9.07,12.34h32.46c1.23-3.17,1.77-8.45,1.9-10.41c0.48-5,0.7-9.07-1.31-12.89
				c-3.19-5.98-11.2-9.38-24.5-10.41c-3.23-0.3-6.22-0.44-9.28-0.44c-6.67,0-12.46,0.72-14.96,1.04
				c-12.08,1.94-18.54,6.43-21.47,14.97c-1.24,3.99-1.66,8.67-1.83,10.43l-0.04,0.49l-0.72,7.23h27.44L469.78,44.9z"/>
			<polygon class="st1" points="111.21,62.06 83.88,62.06 83.42,66.7 110.75,66.7 			"/>
			<polygon class="st1" points="126.83,62.06 126.38,66.7 153.55,66.7 154.01,62.06 			"/>
			<path class="st1" d="M230.83,62.06c-0.96,0.25-1.91,0.52-2.85,0.82c-3.52,1.11-6.25,2.36-8.43,3.81h29.39
				c1-0.37,1.79-0.61,2.01-0.66c-0.01,0,3.63-1.18,6.24-2.08l3.63-1.25l-0.41,3.99h27.37l0.45-4.64H230.83z"/>
			<polygon class="st1" points="351.45,62.06 351,66.7 378.35,66.7 378.81,62.06 			"/>
			<polygon class="st1" points="397.35,62.06 396.87,66.7 424.07,66.7 424.51,62.06 			"/>
			<polygon class="st1" points="305.22,62.06 304.79,66.7 331.95,66.7 332.4,62.06 			"/>
			<path class="st1" d="M469.16,64.4c3.49,2.97,17.98,1.77,21.79,1.77c7.51,0,14.24-1.58,18.32-4.11h-34.54
				C472.96,63.06,471.1,63.87,469.16,64.4z"/>
			<polygon class="st1" points="440.58,62.06 440.12,66.7 467.47,66.7 467.98,62.06 			"/>
			<path class="st0" d="M42.42,89.87c-0.13-0.05-0.2-0.08-0.3-0.12c-0.45-0.15-0.88-0.33-1.3-0.53c-0.18-0.12-0.37-0.22-0.56-0.33
				c-0.28-0.21-0.55-0.4-0.81-0.63c-0.1-0.07-0.19-0.11-0.29-0.22c-0.21-0.2-0.38-0.41-0.53-0.65c-0.01,0-0.04,0-0.04-0.01
				c0,0,0,0,0-0.03c-1.02-1.35-1.3-2.99-1.29-4.53c-0.01-0.31,0-0.56,0.01-0.78c0.01-0.3,0.04-0.57,0.07-0.84l7.15-66.27h29.31
				l1.72-14.71h-29.3V0.22L30.93,0.21L24.3,0.24V0.21l-3.85,0.01H1.91l-1.74,14.7h18.54l-4.48,38.92h0.01l-3.08,31.19
				c-0.55,5.51-0.66,9.38,2.49,13.01c3.71,4.27,9.28,4.6,16.15,4.6h21.3l1.29-12.6l-2.53,0.55C48.75,90.82,43.14,90.08,42.42,89.87z
				"/>
		</g>
		<g>
			<polygon class="st0" points="571.55,62.69 600.17,26.33 574.87,26.33 561.22,43.7 			"/>
			<polygon class="st0" points="556.31,85.98 565.38,102.62 591.17,102.62 571.54,66.58 			"/>
		</g>
		<polygon class="st1" points="516.48,12.85 544.71,64.7 505.11,115.08 529.94,115.08 569.52,64.7 541.28,12.85 		"/>
	</g>
	<g class="st2">
		
			<radialGradient id="SVGID_1_" cx="-672.3939" cy="-235.2416" r="19.3486" gradientTransform="matrix(19.5399 1.0355 -0.1469 2.7722 13413.501 1368.8591)" gradientUnits="userSpaceOnUse">
			<stop  offset="0" style="stop-color:#B8CBE9"/>
			<stop  offset="1" style="stop-color:#FFFFFF;stop-opacity:0"/>
		</radialGradient>
		<path class="st3" d="M87.41,26.29l-2.54,25.77c8.71,1.36,17.7,2.7,26.94,3.99l2.96-29.76H87.41z"/>
		
			<radialGradient id="SVGID_2_" cx="-672.3978" cy="-235.2455" r="19.3553" gradientTransform="matrix(19.5399 1.0355 -0.1469 2.7722 13413.501 1368.8591)" gradientUnits="userSpaceOnUse">
			<stop  offset="0" style="stop-color:#B8CBE9"/>
			<stop  offset="1" style="stop-color:#FFFFFF;stop-opacity:0"/>
		</radialGradient>
		<polygon class="st4" points="88.55,14.97 115.88,14.97 117.35,0.22 89.99,0.22 		"/>
		
			<radialGradient id="SVGID_3_" cx="-672.4016" cy="-235.2449" r="19.3436" gradientTransform="matrix(19.5399 1.0355 -0.1469 2.7722 13413.501 1368.8591)" gradientUnits="userSpaceOnUse">
			<stop  offset="0" style="stop-color:#B8CBE9"/>
			<stop  offset="1" style="stop-color:#FFFFFF;stop-opacity:0"/>
		</radialGradient>
		<path class="st5" d="M193.96,30.87c-5.12-3.73-12.34-5.8-21.61-6.25c-2.33-0.15-4.28-0.15-6.33-0.15
			c-10.82,0-19.12,0.95-27.06,5.7c-8.05,4.63-9.99,10.24-10.89,19.57l-0.8,7.97h27.16l1.1-11.13c0.96-11.86,5.86-14.49,9.79-14.63
			h0.41c3.3,0,5.28,1.27,6.33,2.34c3.41,3.42,2.61,9.35,2.22,12.21c-0.03,0.33-0.09,0.61-0.13,0.8l-0.54,5.67h25.84l0.61-6.5
			c0.56-5.65,0.05-7.86-1.24-10.43C197.44,33.45,194.84,31.42,193.96,30.87z"/>
		
			<radialGradient id="SVGID_4_" cx="-672.4014" cy="-235.2446" r="19.342" gradientTransform="matrix(19.5399 1.0355 -0.1469 2.7722 13413.501 1368.8591)" gradientUnits="userSpaceOnUse">
			<stop  offset="0" style="stop-color:#B8CBE9"/>
			<stop  offset="1" style="stop-color:#FFFFFF;stop-opacity:0"/>
		</radialGradient>
		<path class="st6" d="M257.93,24.47c-19.68,0-31.62,4.03-36.52,12.31c-1.44,2.47-2.26,4.17-2.81,9.61l-0.34,3.56h24.98l0.24-2.82
			c0.72-9.87,4.03-14.91,9.87-15l0,0c2.88,0,5.1,0.82,6.67,2.39c3.56,3.57,2.75,9.89,2.36,12.6l-0.07,0.64l-0.63,6.53l-1.26,0.53
			c-2.05,0.87-4.16,1.47-6.07,2.01l-0.76,0.21c-0.95,0.25-1.9,0.47-2.85,0.68h37.95l1.03-10.63c0.69-6.79-0.05-9.58-1.79-12.61
			C284.07,27.97,273.96,24.6,257.93,24.47z"/>
		
			<radialGradient id="SVGID_5_" cx="-672.4012" cy="-235.249" r="19.3482" gradientTransform="matrix(19.5399 1.0355 -0.1469 2.7722 13413.501 1368.8591)" gradientUnits="userSpaceOnUse">
			<stop  offset="0" style="stop-color:#B8CBE9"/>
			<stop  offset="1" style="stop-color:#FFFFFF;stop-opacity:0"/>
		</radialGradient>
		<path class="st7" d="M406.12,24.91c-12.44,0-18.29,7.02-21.44,10.8l-2.57,3.06l-1.96-3.79c-0.63-1.43-1.54-3.37-3.93-5.58
			c-5.06-4.63-12.64-4.63-15.13-4.63c-3.12,0-5.15,0.28-6.33,0.54c-2.75,0.58-9.68,2.65-15.1,9.58l-5.22,6.71l1.5-15.3h-27.18
			l-3.11,31.42h27.19l1.08-10.78c0.1-1.12,0.21-2.26,0.78-3.59c1.39-3.39,4.78-5.34,9.31-5.34c2.98,0,5.26,0.77,6.84,2.3
			c2.51,2.43,2.18,5.88,2.06,7L351.9,57.7h27.32l1.03-10.32c0.74-7.4,6.01-8.93,10.3-8.93c2.71,0,4.81,0.72,6.29,2.12
			c1.59,1.56,2.26,3.87,1.96,6.88l-1.03,10.25h27.17l1.36-13.66c0.27-2.88,0.56-5.65-0.24-8.14
			C425.13,32.54,421.37,24.91,406.12,24.91z"/>
		
			<radialGradient id="SVGID_6_" cx="-672.4011" cy="-235.2477" r="19.3479" gradientTransform="matrix(19.5399 1.0355 -0.1469 2.7722 13413.501 1368.8591)" gradientUnits="userSpaceOnUse">
			<stop  offset="0" style="stop-color:#B8CBE9"/>
			<stop  offset="1" style="stop-color:#FFFFFF;stop-opacity:0"/>
		</radialGradient>
		<path class="st8" d="M489.3,24c-3.23-0.31-6.22-0.45-9.28-0.45c-6.67,0-12.46,0.73-14.96,1.05c-12.08,1.95-18.54,6.42-21.47,14.97
			c-1.24,3.99-1.66,8.67-1.83,10.43l-0.04,0.48l-0.72,7.23h27.44l1.33-12.76c0.98-10.13,4.59-15.26,10.79-15.26
			c2.21,0,4,0.97,5.65,2.21c5.78,4.35,3.69,12.35,3.6,13.46c-1.76,3.89-4.92,8.53-9.07,12.34h32.46c1.23-3.16,1.77-8.44,1.9-10.41
			c0.48-5,0.7-9.07-1.31-12.89C510.61,28.43,502.61,25.01,489.3,24z"/>
		
			<radialGradient id="SVGID_7_" cx="-672.3961" cy="-235.2458" r="19.3518" gradientTransform="matrix(19.5399 1.0355 -0.1469 2.7722 13413.501 1368.8591)" gradientUnits="userSpaceOnUse">
			<stop  offset="0" style="stop-color:#B8CBE9"/>
			<stop  offset="1" style="stop-color:#FFFFFF;stop-opacity:0"/>
		</radialGradient>
		<path class="st9" d="M73.85,14.99l1.72-14.7h-29.3V0.28L30.93,0.26L24.3,0.28V0.26l-3.85,0.02H1.91l-1.74,14.7h18.54l-2.78,24.13
			c8,1.83,16.5,3.61,25.43,5.34l3.18-29.46H73.85z"/>
		
			<radialGradient id="SVGID_8_" cx="-672.4064" cy="-235.2455" r="19.353" gradientTransform="matrix(19.5399 1.0355 -0.1469 2.7722 13413.501 1368.8591)" gradientUnits="userSpaceOnUse">
			<stop  offset="0" style="stop-color:#B8CBE9"/>
			<stop  offset="1" style="stop-color:#FFFFFF;stop-opacity:0"/>
		</radialGradient>
		<polygon class="st10" points="561.22,43.75 571.55,62.73 600.17,26.39 574.87,26.39 		"/>
		
			<linearGradient id="SVGID_9_" gradientUnits="userSpaceOnUse" x1="-608.6928" y1="-234.3134" x2="-624.8477" y2="-292.2459" gradientTransform="matrix(7.0385 0.373 -0.0529 0.9986 4866.0898 537.0239)">
			<stop  offset="0" style="stop-color:#FFFFFF;stop-opacity:0"/>
			<stop  offset="0.3129" style="stop-color:#FFFFFF;stop-opacity:0.75"/>
			<stop  offset="1" style="stop-color:#FFFFFF;stop-opacity:0"/>
		</linearGradient>
		<path class="st11" d="M541.28,12.89h-24.8l28.23,51.85l-8.23,10.48c9.03-0.48,17.75-1.06,26.14-1.69l6.91-8.78L541.28,12.89z"/>
	</g>
	<g>
		<path class="st0" d="M176.04,165.58c-2.94,2.78-6.91,4.19-11.94,4.19c-2.59,0-4.89-0.36-6.93-1.12c-2.03-0.75-3.76-1.83-5.16-3.25
			c-1.4-1.41-2.48-3.11-3.25-5.15c-0.74-2.02-1.11-4.32-1.11-6.93c0-2.55,0.37-4.85,1.11-6.9c0.77-2.02,1.85-3.74,3.25-5.14
			c1.4-1.42,3.13-2.51,5.16-3.26c2.03-0.74,4.34-1.12,6.93-1.12c4.32,0,7.86,1.04,10.65,3.15l-1.82,2.41
			c-2.27-1.7-5.22-2.54-8.84-2.54c-4.37,0-7.7,1.16-9.98,3.44c-2.3,2.29-3.44,5.61-3.44,9.95c0,4.38,1.14,7.72,3.44,10
			c2.28,2.31,5.61,3.46,9.98,3.46c2.07,0,3.94-0.28,5.61-0.87c1.66-0.56,3.07-1.42,4.22-2.53L176.04,165.58z"/>
		<path class="st0" d="M239.83,160.79h-18.74l-4.16,8.71h-3.43l15.63-31.73c0.28-0.59,0.73-0.86,1.33-0.86
			c0.62,0,1.06,0.27,1.33,0.86l15.7,31.73h-3.29L239.83,160.79z M238.37,157.78l-7.9-15.96l-7.9,15.96H238.37z"/>
		<path class="st0" d="M309.92,169.5l-10.49-13.01h-9.9v13.01h-3.03v-30.74c0-0.41,0.14-0.76,0.45-1.05c0.3-0.3,0.64-0.46,1.05-0.46
			h13.81h0.08c1.29,0.03,2.53,0.31,3.65,0.82c1.15,0.53,2.13,1.2,3.01,2.09c0.85,0.85,1.53,1.84,2.01,3.02
			c0.5,1.17,0.75,2.39,0.75,3.69c0,1.21-0.22,2.35-0.63,3.4c-0.44,1.07-1,2.03-1.71,2.88c-0.75,0.85-1.61,1.54-2.59,2.11
			c-0.97,0.56-2.04,0.91-3.2,1.1l10.62,13.14H309.92z M289.53,153.47h12.18c0.85,0,1.72-0.18,2.52-0.52
			c0.81-0.34,1.52-0.82,2.12-1.43c0.6-0.59,1.08-1.32,1.42-2.11c0.36-0.76,0.53-1.63,0.53-2.55c0-0.93-0.18-1.79-0.53-2.58
			c-0.34-0.81-0.82-1.5-1.42-2.08c-0.6-0.6-1.31-1.05-2.12-1.42c-0.8-0.35-1.67-0.51-2.52-0.51h-12.18V153.47z"/>
		<path class="st0" d="M378.26,151.84v12.61c0,0.41-0.15,0.79-0.44,1.13c-2.94,2.78-6.92,4.19-11.97,4.19
			c-2.58,0-4.87-0.36-6.91-1.12c-2.04-0.75-3.76-1.83-5.16-3.25c-1.42-1.41-2.48-3.11-3.24-5.15c-0.74-2.02-1.12-4.32-1.12-6.93
			c0-2.55,0.38-4.85,1.12-6.9c0.75-2.02,1.82-3.74,3.24-5.14c1.4-1.42,3.12-2.51,5.16-3.26c2.05-0.74,4.34-1.12,6.91-1.12
			c4.33,0,7.88,1.04,10.66,3.15l-1.81,2.41c-2.25-1.7-5.23-2.54-8.85-2.54c-4.37,0-7.68,1.16-9.97,3.44
			c-2.31,2.29-3.46,5.61-3.46,9.95c0,4.38,1.15,7.72,3.46,10c2.28,2.31,5.59,3.46,9.97,3.46c3.96,0,7.08-0.99,9.37-2.98v-11.07
			L378.26,151.84z"/>
		<path class="st0" d="M433.96,169.77c-2.61,0-4.9-0.36-6.95-1.12c-2.01-0.75-3.74-1.83-5.14-3.25c-1.42-1.41-2.49-3.11-3.24-5.15
			c-0.75-2.02-1.12-4.32-1.12-6.93c0-2.55,0.37-4.85,1.12-6.9c0.75-2.02,1.82-3.74,3.24-5.14c1.4-1.42,3.13-2.51,5.14-3.26
			c2.04-0.74,4.33-1.12,6.95-1.12c2.59,0,4.88,0.37,6.92,1.12c2.02,0.75,3.76,1.84,5.18,3.26c1.4,1.4,2.49,3.12,3.23,5.14
			c0.74,2.05,1.11,4.35,1.11,6.9c0,2.61-0.37,4.91-1.11,6.93c-0.74,2.04-1.84,3.75-3.23,5.15c-1.42,1.42-3.15,2.5-5.18,3.25
			C438.84,169.41,436.54,169.77,433.96,169.77z M433.96,139.93c-4.39,0-7.71,1.16-10,3.44c-2.27,2.29-3.44,5.61-3.44,9.95
			c0,4.38,1.17,7.72,3.44,10c2.29,2.31,5.6,3.46,10,3.46c4.34,0,7.7-1.16,9.99-3.46c2.27-2.29,3.43-5.62,3.43-10
			c0-4.34-1.16-7.66-3.43-9.95C441.66,141.09,438.3,139.93,433.96,139.93z"/>
	</g>
	<g>
		<path class="st0" d="M109.88,71.5l-3.02,30.61H80.33l3.01-30.61H109.88 M110.32,71.09H82.96l-3.07,31.44h27.32L110.32,71.09
			L110.32,71.09z"/>
		<path class="st0" d="M114.31,26.65l-3.02,30.62H84.74l3.02-30.62H114.31 M114.78,26.25H87.41l-3.1,31.45h27.35L114.78,26.25
			L114.78,26.25z"/>
		<path class="st0" d="M116.92,0.6l-1.41,13.92h-26.5L90.36,0.6H116.92 M117.35,0.19H89.99l-1.44,14.75h27.34L117.35,0.19
			L117.35,0.19z"/>
		<path class="st0" d="M166.02,24.84c2.05,0,3.98,0,6.33,0.16c9.17,0.44,16.36,2.51,21.4,6.19c0.78,0.5,3.38,2.49,4.72,4.99
			c1.25,2.51,1.73,4.68,1.2,10.23l-0.62,6.14h-24.97l0.51-5.23c0-0.17,0.05-0.36,0.05-0.59l0.04-0.23c0.4-2.91,1.23-8.97-2.34-12.52
			c-1.1-1.13-3.15-2.45-6.63-2.45h-0.42c-4.11,0.12-9.19,2.84-10.16,14.99l-1.06,10.77h-26.37l0.76-7.54
			c0.91-9.18,2.81-14.68,10.73-19.26C147.04,25.77,155.26,24.84,166.02,24.84 M166.02,24.43c-10.82,0-19.12,0.94-27.06,5.7
			c-8.05,4.66-9.99,10.23-10.89,19.56l-0.8,8h27.16l1.1-11.14c0.96-11.86,5.86-14.51,9.79-14.63l0.41-0.01
			c3.3,0,5.28,1.27,6.33,2.34c3.41,3.41,2.61,9.37,2.22,12.21c-0.03,0.32-0.09,0.6-0.13,0.81l-0.54,5.66h25.84l0.61-6.5
			c0.56-5.65,0.05-7.86-1.24-10.44c-1.4-2.58-3.99-4.6-4.88-5.16c-5.12-3.74-12.34-5.8-21.61-6.25
			C170.02,24.43,168.07,24.43,166.02,24.43L166.02,24.43z"/>
		<path class="st0" d="M152.66,71.5l-0.86,9.09l-0.05,0.26c-0.18,1.74-0.54,5.04,1.97,7.45c1.57,1.53,3.92,2.33,7,2.33
			c9.79,0,10.33-7.13,10.52-9.45l0.29-2.96h26.19l-0.29,2.96c-0.62,5.99-1.56,9.56-5.54,13.61c-5.96,5.92-15.8,7.86-19.76,8.41
			c-4.61,0.71-9.05,0.71-10.51,0.71c-3.01,0-6.1-0.14-8.83-0.27l-0.38-0.03c-7.85-0.42-21.67-2.52-26.06-11.87
			c-1.56-3.37-1.4-6.72-0.98-10.71l0.95-9.54H152.66 M153.13,71.09h-27.19l-0.98,9.91c-0.4,4.06-0.58,7.47,1.05,10.95
			c4.43,9.54,18.45,11.66,26.38,12.08l0.39,0.03c3,0.13,5.91,0.29,8.85,0.29c1.47,0,5.9,0,10.58-0.72
			c4.02-0.59,13.97-2.55,19.96-8.53c4.07-4.14,5.07-7.77,5.68-13.87l0.33-3.4h-27.01l-0.32,3.31c-0.18,2.25-0.71,9.07-10.12,9.07
			c-2.95,0-5.22-0.71-6.74-2.22c-2.34-2.26-2.02-5.43-1.84-7.09l0.05-0.27L153.13,71.09L153.13,71.09z"/>
		<path class="st0" d="M240.66,71.5c-1.44,1.94-1.71,3.63-1.93,5.91l-0.6,6.12c-0.17,1.67-0.54,5.12,2.09,7.68
			c1.71,1.68,7.05,2.45,10.11,2.45c0.62,0,2.05-0.28,3.2-0.48c0.21-0.04,0.4-0.05,0.57-0.1c-0.97,1.84-3.89,4.53-5.39,5.92
			c-3.82,3.51-12.91,5.08-20.24,5.08c-13.21,0-16.28-6.49-16.91-8.47c-0.9-2.53-0.6-5.52-0.02-11.55c0.58-5.97,1.66-9.64,3.64-12.56
			H240.66 M241.53,71.09h-26.55c-2.36,3.35-3.31,7.55-3.84,12.92c-0.61,6.08-0.9,9.12,0.03,11.72c0.67,2.1,3.83,8.77,17.3,8.77
			c8.05,0,16.77-1.75,20.51-5.2c2.26-2.06,5.26-4.95,5.78-6.73c-0.77,0.1-3.57,0.68-4.42,0.68c-3.11,0-8.25-0.8-9.84-2.35
			c-2.48-2.41-2.12-5.73-1.95-7.33l0.61-6.13C239.39,74.91,239.69,73.2,241.53,71.09L241.53,71.09z"/>
		<path class="st0" d="M257.93,24.84L257.93,24.84c15.87,0.12,25.85,3.42,29.63,9.81c1.69,2.95,2.41,5.69,1.74,12.37l-1,10.26h-34.2
			l0.36-0.1c1.8-0.51,4.04-1.15,6.12-2.02l1.25-0.52l0.21-0.1l0.03-0.24l0.64-6.53l0.07-0.62c0.39-2.78,1.25-9.23-2.47-12.95
			c-1.68-1.68-4.02-2.53-6.96-2.53c-6.1,0.1-9.55,5.27-10.27,15.4l-0.22,2.43H218.7l0.32-3.1c0.54-5.37,1.34-7,2.74-9.46
			C226.58,28.79,238.41,24.84,257.93,24.84 M257.93,24.43c-19.68,0-31.62,4.03-36.52,12.32c-1.44,2.48-2.26,4.18-2.81,9.61
			l-0.34,3.54h24.98l0.24-2.79c0.72-9.88,4.03-14.94,9.87-15.02l0,0c2.88,0,5.1,0.83,6.67,2.39c3.56,3.57,2.75,9.89,2.36,12.61
			l-0.07,0.64l-0.63,6.52l-1.26,0.53c-2.05,0.88-4.16,1.47-6.07,2.02l-0.76,0.2c-0.95,0.26-1.9,0.46-2.85,0.69h37.95l1.03-10.66
			c0.69-6.78-0.05-9.58-1.79-12.6C284.07,27.93,273.96,24.56,257.93,24.43L257.93,24.43z"/>
		<path class="st0" d="M286.9,71.5l-2.23,22.68c-0.36,3.66-0.22,6.05,0.55,7.94h-27.87l3.03-30.61H286.9 M287.35,71.09H260
			l-3.1,31.44h28.95c-0.94-1.87-1.18-4.23-0.79-8.32L287.35,71.09L287.35,71.09z"/>
		<path class="st0" d="M377.46,71.5l-3.02,30.61h-26.52l3.02-30.61H377.46 M377.91,71.09h-27.34l-3.09,31.44h27.32L377.91,71.09
			L377.91,71.09z"/>
		<path class="st0" d="M361.1,25.14c2.45,0,9.9,0,14.85,4.54c2.33,2.14,3.22,4.06,3.85,5.47l1.95,3.78l0.28,0.56l0.4-0.48l2.58-3.06
			c3.09-3.73,8.88-10.67,21.11-10.67c14.97,0,18.65,7.47,19.53,10.71c0.8,2.41,0.53,5.12,0.23,8l-1.32,13.29h-26.35l0.97-9.81
			c0.32-3.13-0.38-5.56-2.09-7.2c-1.55-1.51-3.75-2.25-6.55-2.25c-4.47,0-9.94,1.61-10.69,9.31l-0.99,9.96h-26.54l1-9.96
			c0.11-1.17,0.47-4.77-2.2-7.33c-1.65-1.61-4.04-2.43-7.12-2.43c-4.69,0-8.22,2.04-9.68,5.59c-0.59,1.34-0.71,2.54-0.83,3.72
			l-1.02,10.42h-26.36l3.02-30.62h26.34l-1.45,14.85l-0.16,1.41l0.89-1.1l5.23-6.71c5.31-6.82,12.16-8.87,14.9-9.43
			C356,25.44,357.99,25.14,361.1,25.14 M361.1,24.73c-3.12,0-5.15,0.28-6.33,0.55c-2.75,0.58-9.68,2.65-15.1,9.58l-5.22,6.71
			l1.5-15.32h-27.18l-3.11,31.45h27.19l1.08-10.81c0.1-1.12,0.21-2.27,0.78-3.59c1.39-3.39,4.78-5.33,9.31-5.33
			c2.98,0,5.26,0.77,6.84,2.29c2.51,2.43,2.18,5.88,2.06,7l-1.01,10.44h27.32l1.03-10.35c0.74-7.37,6.01-8.92,10.3-8.92
			c2.71,0,4.81,0.7,6.29,2.11c1.59,1.55,2.26,3.87,1.96,6.88l-1.03,10.27h27.17l1.36-13.67c0.27-2.92,0.56-5.66-0.24-8.16
			c-0.93-3.36-4.7-10.98-19.94-10.98c-12.44,0-18.29,7.01-21.44,10.79l-2.57,3.07l-1.96-3.78c-0.63-1.43-1.54-3.39-3.93-5.59
			C371.16,24.73,363.58,24.73,361.1,24.73L361.1,24.73z"/>
		<path class="st0" d="M331.06,71.5l-3.03,30.61H301.7l2.99-30.61H331.06 M331.52,71.09h-27.18l-3.1,31.44h27.18L331.52,71.09
			L331.52,71.09z"/>
		<path class="st0" d="M423.17,71.5l-3.03,30.61h-26.32l3.01-30.61H423.17 M423.63,71.09h-27.17l-3.11,31.44h27.17L423.63,71.09
			L423.63,71.09z"/>
		<path class="st0" d="M466.57,71.5l-0.64,6.24c-0.23,2.08-0.7,6.93,2.54,10.08c1.73,1.68,4.08,2.52,7.02,2.52
			c6.49,0,10.1-3.24,10.75-9.6l0.2-2.19h25.17l-0.16,1.59c-0.6,6.15-1.6,11.62-7.65,16.29c-6.19,4.9-15.1,6.9-30.76,6.9
			c-4.44,0-8.32-0.19-11.8-0.57l-0.63-0.07c-12.94-1.55-17.87-5.97-19.75-9.43c-2.52-4.47-2.01-9.55-1.5-14.93l0.68-6.82H466.57
			 M467.05,71.09h-27.38l-0.7,7.18c-0.53,5.43-1.04,10.58,1.55,15.19c1.92,3.54,6.95,8.08,20.06,9.64l0.62,0.08
			c3.45,0.35,7.36,0.54,11.85,0.54c15.74,0,24.74-2.01,31-6.98c6.2-4.78,7.2-10.34,7.81-16.58l0.21-2.05h-25.99l-0.25,2.57
			c-0.59,6.18-4.07,9.22-10.34,9.22c-2.82,0-5.09-0.81-6.73-2.38c-3.13-3.02-2.66-7.74-2.44-9.77L467.05,71.09L467.05,71.09z"/>
		<path class="st0" d="M480.03,23.93c3.1,0,6.05,0.14,9.25,0.45c13.14,1.01,21.03,4.35,24.15,10.19c1.94,3.71,1.75,7.77,1.26,12.67
			c-0.09,1.74-0.59,6.82-1.74,10.04h-31.2c3.52-3.4,6.57-7.67,8.44-11.78l0.03-0.06v-0.07c0.03-0.12,0.04-0.3,0.07-0.55
			c0.39-2.29,1.54-9.23-3.82-13.27c-1.43-1.07-3.38-2.3-5.9-2.3c-6.42,0-10.19,5.27-11.21,15.63l-1.28,12.4h-26.61l0.65-6.79
			l0.05-0.5c0.16-1.73,0.57-6.37,1.81-10.32c2.9-8.39,9.22-12.8,21.14-14.71C467.58,24.65,473.34,23.93,480.03,23.93 M480.03,23.53
			c-6.67,0-12.46,0.71-14.96,1.01c-12.08,1.96-18.54,6.45-21.47,14.99c-1.24,4-1.66,8.68-1.83,10.43l-0.04,0.48l-0.72,7.25h27.44
			l1.33-12.76c0.98-10.14,4.59-15.26,10.79-15.26c2.21,0,4,0.96,5.65,2.21c5.78,4.35,3.69,12.33,3.6,13.45
			c-1.76,3.88-4.92,8.55-9.07,12.36h32.46c1.23-3.19,1.77-8.46,1.9-10.42c0.48-5.02,0.7-9.07-1.31-12.9
			c-3.19-5.97-11.2-9.38-24.5-10.41C486.08,23.67,483.09,23.53,480.03,23.53L480.03,23.53z"/>
		<path class="st1" d="M110.76,62.49l-0.37,3.81H83.86l0.38-3.81H110.76 M111.21,62.09H83.88l-0.46,4.62h27.34L111.21,62.09
			L111.21,62.09z"/>
		<path class="st1" d="M153.55,62.49l-0.35,3.81h-26.37l0.37-3.81H153.55 M154.01,62.09h-27.18l-0.44,4.62h27.16L154.01,62.09
			L154.01,62.09z"/>
		<path class="st1" d="M287.79,62.49l-0.37,3.81H260.9l0.34-3.54l0.03-0.27H287.79 M260.25,62.49l-3.19,1.1
			c-2.04,0.69-4.77,1.58-5.8,1.94c-0.18,0.05-0.31,0.08-0.42,0.14v-0.02c-0.2,0.08-0.97,0.3-1.94,0.65h-27.93
			c1.97-1.13,4.32-2.13,7.11-3.02c0.94-0.28,1.88-0.53,2.81-0.78H260.25 M288.23,62.09h-57.4c-0.96,0.25-1.91,0.51-2.85,0.8
			c-3.52,1.12-6.25,2.37-8.43,3.82h29.39c1-0.36,1.79-0.6,2.01-0.67c-0.01,0,3.63-1.19,6.24-2.08l3.63-1.23l-0.41,3.98h27.37
			L288.23,62.09L288.23,62.09z"/>
		<path class="st1" d="M378.35,62.49l-0.37,3.81h-26.53l0.39-3.81H378.35 M378.81,62.09h-27.36L351,66.72h27.35L378.81,62.09
			L378.81,62.09z"/>
		<path class="st1" d="M424.07,62.49l-0.37,3.81h-26.35l0.35-3.81H424.07 M424.51,62.09h-27.16l-0.48,4.62h27.2L424.51,62.09
			L424.51,62.09z"/>
		<path class="st1" d="M331.95,62.49l-0.37,3.81h-26.36l0.39-3.81H331.95 M332.4,62.09h-27.18l-0.44,4.62h27.17L332.4,62.09
			L332.4,62.09z"/>
		<path class="st1" d="M507.7,62.49c-4.15,2.08-10.26,3.28-16.75,3.28c-0.69,0-1.67,0.04-2.94,0.09c-1.89,0.06-4.25,0.15-6.67,0.15
			c-5.63,0-9.37-0.48-11.24-1.43c1.56-0.52,3.16-1.22,4.71-2.08H507.7 M509.27,62.09h-34.54c-1.78,0.99-3.64,1.79-5.58,2.33
			c1.91,1.62,7.19,2,12.19,2c4.05,0,7.89-0.25,9.61-0.25C498.46,66.17,505.2,64.6,509.27,62.09L509.27,62.09z"/>
		<path class="st1" d="M467.52,62.49l-0.38,3.81h-26.57l0.37-3.81H467.52 M467.98,62.09h-27.4l-0.45,4.62h27.35L467.98,62.09
			L467.98,62.09z"/>
		<path class="st0" d="M30.93,0.63l14.91,0.02v0.02h0.43h28.84l-1.67,13.9H44.54h-0.37l-0.02,0.36l-7.18,66.26
			c0,0.28-0.02,0.56-0.06,0.85c-0.01,0.22-0.01,0.49-0.01,0.82c0,1.96,0.44,3.53,1.36,4.78l0.14,0.18l0,0
			c0.13,0.18,0.3,0.35,0.49,0.56c0.05,0.05,0.14,0.09,0.21,0.14c0.02,0.03,0.06,0.05,0.09,0.07c0.27,0.24,0.55,0.45,0.85,0.64
			c0.19,0.14,0.41,0.27,0.62,0.38c0.43,0.21,0.86,0.4,1.33,0.55l0.12,0.05c0.07,0.02,0.12,0.03,0.17,0.07
			c0.67,0.19,4.98,0.78,6.91,0.78c0.34,0,0.6-0.03,0.77-0.08l1.97-0.39l-1.17,11.66H29.81c-6.78,0-12.25-0.34-15.83-4.47
			c-3.05-3.49-2.94-7.28-2.41-12.69l3.08-31.19v-0.32l4.46-38.59l0.03-0.45h-0.43H0.63L2.28,0.65h18.17l3.36-0.02L23.8,0.66
			l0.5-0.01L30.93,0.63 M30.93,0.22L24.3,0.25c0,0,0-0.01,0-0.02l-3.85,0.01H1.91l-1.74,14.7h18.54l-4.48,38.94h0.01l-3.08,31.17
			c-0.55,5.51-0.66,9.37,2.49,13c3.71,4.27,9.28,4.6,16.15,4.6h21.3l1.29-12.59l-2.53,0.53c-0.15,0.05-0.39,0.05-0.68,0.05
			c-1.9,0-6.15-0.55-6.76-0.76c-0.13-0.04-0.2-0.08-0.3-0.12c-0.45-0.14-0.88-0.31-1.3-0.53c-0.18-0.08-0.37-0.21-0.56-0.33
			c-0.28-0.18-0.55-0.38-0.81-0.62c-0.1-0.08-0.19-0.12-0.29-0.22c-0.21-0.2-0.38-0.4-0.53-0.62c-0.01-0.02-0.04-0.04-0.04-0.04
			v-0.01c-1.02-1.38-1.3-3.01-1.29-4.53c-0.01-0.3,0-0.57,0.01-0.79c0.01-0.29,0.04-0.57,0.07-0.84l7.15-66.25h29.31l1.72-14.71
			h-29.3V0.24L30.93,0.22L30.93,0.22z"/>
	</g>
	<g>
		<path class="st0" d="M599.3,26.75l-27.68,35.23l-9.92-18.22l13.38-17.01H599.3 M600.17,26.34h-25.3l-13.65,17.38l10.33,18.99
			L600.17,26.34L600.17,26.34z"/>
		<path class="st0" d="M571.48,67.33l19.01,34.9h-24.9l-8.83-16.2L571.48,67.33 M571.54,66.58l-15.23,19.4l9.07,16.66h25.8
			L571.54,66.58L571.54,66.58z"/>
	</g>
	<path class="st1" d="M540.95,13.44l27.9,51.21l-39.19,49.89h-23.36l38.87-49.48l0.23-0.3l-0.16-0.34l-27.81-50.99H540.95
		 M541.28,12.87h-24.8l28.23,51.85l-39.6,50.37h24.83l39.58-50.37L541.28,12.87L541.28,12.87z"/>
</g>
</svg>
